<?xml version="1.0" encoding="UTF-8" standalone="no"?>
<svg
   xmlns:dc="http://purl.org/dc/elements/1.1/"
   xmlns:cc="http://creativecommons.org/ns#"
   xmlns:rdf="http://www.w3.org/1999/02/22-rdf-syntax-ns#"
   xmlns:svg="http://www.w3.org/2000/svg"
   xmlns="http://www.w3.org/2000/svg"
   xmlns:xlink="http://www.w3.org/1999/xlink"
   xmlns:sodipodi="http://sodipodi.sourceforge.net/DTD/sodipodi-0.dtd"
   xmlns:inkscape="http://www.inkscape.org/namespaces/inkscape"
   sodipodi:docname="projection.svg"
   inkscape:version="1.0 (4035a4fb49, 2020-05-01)"
   id="svg8"
   version="1.1"
   viewBox="0 0 180 100"
   height="100mm"
   width="180mm"
   inkscape:export-filename="/home/john/Desktop/projective_plane/src/drawing.png"
   inkscape:export-xdpi="149.72624"
   inkscape:export-ydpi="149.72624">
  <defs
     id="defs2">
    <g
       id="g2739">
      <symbol
         overflow="visible"
         id="symbol665">
        <path
           style="stroke:none;"
           d=""
           id="path1087" />
      </symbol>
      <symbol
         overflow="visible"
         id="symbol4000">
        <path
           style="stroke:none;"
           d="M 2.671875 -3.125 L 3.03125 -3.125 L 4.53125 -0.8125 C 4.625 -0.65625 4.859375 -0.265625 4.96875 -0.125 C 5.046875 0 5.078125 0 5.296875 0 L 6.671875 0 C 6.859375 0 7.015625 0 7.015625 -0.171875 C 7.015625 -0.265625 6.953125 -0.328125 6.859375 -0.34375 C 6.484375 -0.421875 6 -1.09375 5.765625 -1.40625 C 5.6875 -1.5 5.1875 -2.15625 4.53125 -3.234375 C 5.40625 -3.40625 6.265625 -3.78125 6.265625 -4.96875 C 6.265625 -6.34375 4.8125 -6.828125 3.625 -6.828125 L 0.5 -6.828125 C 0.3125 -6.828125 0.15625 -6.828125 0.15625 -6.65625 C 0.15625 -6.484375 0.34375 -6.484375 0.421875 -6.484375 C 1 -6.484375 1.046875 -6.40625 1.046875 -5.90625 L 1.046875 -0.921875 C 1.046875 -0.421875 1 -0.34375 0.421875 -0.34375 C 0.34375 -0.34375 0.15625 -0.34375 0.15625 -0.171875 C 0.15625 0 0.3125 0 0.5 0 L 3.234375 0 C 3.40625 0 3.5625 0 3.5625 -0.171875 C 3.5625 -0.34375 3.390625 -0.34375 3.28125 -0.34375 C 2.71875 -0.34375 2.671875 -0.421875 2.671875 -0.921875 Z M 4.59375 -3.625 C 4.875 -3.984375 4.90625 -4.515625 4.90625 -4.953125 C 4.90625 -5.4375 4.84375 -5.96875 4.53125 -6.375 C 4.9375 -6.28125 5.921875 -5.96875 5.921875 -4.96875 C 5.921875 -4.3125 5.625 -3.8125 4.59375 -3.625 Z M 2.671875 -5.9375 C 2.671875 -6.15625 2.671875 -6.484375 3.296875 -6.484375 C 4.140625 -6.484375 4.5625 -6.125 4.5625 -4.953125 C 4.5625 -3.671875 4.25 -3.484375 2.671875 -3.484375 Z M 1.3125 -0.34375 C 1.390625 -0.53125 1.390625 -0.8125 1.390625 -0.890625 L 1.390625 -5.9375 C 1.390625 -6.03125 1.390625 -6.296875 1.3125 -6.484375 L 2.453125 -6.484375 C 2.328125 -6.3125 2.328125 -6.125 2.328125 -5.96875 L 2.328125 -0.890625 C 2.328125 -0.796875 2.328125 -0.53125 2.40625 -0.34375 Z M 3.4375 -3.125 C 3.515625 -3.140625 3.546875 -3.15625 3.625 -3.15625 C 3.78125 -3.15625 4 -3.171875 4.140625 -3.1875 C 4.296875 -2.953125 5.375 -1.171875 6.203125 -0.34375 L 5.234375 -0.34375 Z M 3.4375 -3.125 "
           id="path7407" />
      </symbol>
      <symbol
         overflow="visible"
         id="symbol6528">
        <path
           style="stroke:none;"
           d=""
           id="path2770" />
      </symbol>
      <symbol
         overflow="visible"
         id="symbol8458">
        <path
           style="stroke:none;"
           d="M 3.515625 -1.265625 L 3.28125 -1.265625 C 3.265625 -1.109375 3.1875 -0.703125 3.09375 -0.640625 C 3.046875 -0.59375 2.515625 -0.59375 2.40625 -0.59375 L 1.125 -0.59375 C 1.859375 -1.234375 2.109375 -1.4375 2.515625 -1.765625 C 3.03125 -2.171875 3.515625 -2.609375 3.515625 -3.265625 C 3.515625 -4.109375 2.78125 -4.625 1.890625 -4.625 C 1.03125 -4.625 0.4375 -4.015625 0.4375 -3.375 C 0.4375 -3.03125 0.734375 -2.984375 0.8125 -2.984375 C 0.96875 -2.984375 1.171875 -3.109375 1.171875 -3.359375 C 1.171875 -3.484375 1.125 -3.734375 0.765625 -3.734375 C 0.984375 -4.21875 1.453125 -4.375 1.78125 -4.375 C 2.484375 -4.375 2.84375 -3.828125 2.84375 -3.265625 C 2.84375 -2.65625 2.40625 -2.1875 2.1875 -1.9375 L 0.515625 -0.265625 C 0.4375 -0.203125 0.4375 -0.1875 0.4375 0 L 3.3125 0 Z M 3.515625 -1.265625 "
           id="path9411" />
      </symbol>
    </g>
    <g
       id="g770">
      <symbol
         overflow="visible"
         id="symbol1274">
        <path
           style="stroke:none;"
           d=""
           id="path4062" />
      </symbol>
      <symbol
         overflow="visible"
         id="symbol1985">
        <path
           style="stroke:none;"
           d="M 2.671875 -3.125 L 3.03125 -3.125 L 4.53125 -0.8125 C 4.625 -0.65625 4.859375 -0.265625 4.96875 -0.125 C 5.046875 0 5.078125 0 5.296875 0 L 6.671875 0 C 6.859375 0 7.015625 0 7.015625 -0.171875 C 7.015625 -0.265625 6.953125 -0.328125 6.859375 -0.34375 C 6.484375 -0.421875 6 -1.09375 5.765625 -1.40625 C 5.6875 -1.5 5.1875 -2.15625 4.53125 -3.234375 C 5.40625 -3.40625 6.265625 -3.78125 6.265625 -4.96875 C 6.265625 -6.34375 4.8125 -6.828125 3.625 -6.828125 L 0.5 -6.828125 C 0.3125 -6.828125 0.15625 -6.828125 0.15625 -6.65625 C 0.15625 -6.484375 0.34375 -6.484375 0.421875 -6.484375 C 1 -6.484375 1.046875 -6.40625 1.046875 -5.90625 L 1.046875 -0.921875 C 1.046875 -0.421875 1 -0.34375 0.421875 -0.34375 C 0.34375 -0.34375 0.15625 -0.34375 0.15625 -0.171875 C 0.15625 0 0.3125 0 0.5 0 L 3.234375 0 C 3.40625 0 3.5625 0 3.5625 -0.171875 C 3.5625 -0.34375 3.390625 -0.34375 3.28125 -0.34375 C 2.71875 -0.34375 2.671875 -0.421875 2.671875 -0.921875 Z M 4.59375 -3.625 C 4.875 -3.984375 4.90625 -4.515625 4.90625 -4.953125 C 4.90625 -5.4375 4.84375 -5.96875 4.53125 -6.375 C 4.9375 -6.28125 5.921875 -5.96875 5.921875 -4.96875 C 5.921875 -4.3125 5.625 -3.8125 4.59375 -3.625 Z M 2.671875 -5.9375 C 2.671875 -6.15625 2.671875 -6.484375 3.296875 -6.484375 C 4.140625 -6.484375 4.5625 -6.125 4.5625 -4.953125 C 4.5625 -3.671875 4.25 -3.484375 2.671875 -3.484375 Z M 1.3125 -0.34375 C 1.390625 -0.53125 1.390625 -0.8125 1.390625 -0.890625 L 1.390625 -5.9375 C 1.390625 -6.03125 1.390625 -6.296875 1.3125 -6.484375 L 2.453125 -6.484375 C 2.328125 -6.3125 2.328125 -6.125 2.328125 -5.96875 L 2.328125 -0.890625 C 2.328125 -0.796875 2.328125 -0.53125 2.40625 -0.34375 Z M 3.4375 -3.125 C 3.515625 -3.140625 3.546875 -3.15625 3.625 -3.15625 C 3.78125 -3.15625 4 -3.171875 4.140625 -3.1875 C 4.296875 -2.953125 5.375 -1.171875 6.203125 -0.34375 L 5.234375 -0.34375 Z M 3.4375 -3.125 "
           id="path3867" />
      </symbol>
      <symbol
         overflow="visible"
         id="symbol2511">
        <path
           style="stroke:none;"
           d=""
           id="path8133" />
      </symbol>
      <symbol
         overflow="visible"
         id="symbol1140">
        <path
           style="stroke:none;"
           d="M 2.265625 -3.15625 L 3.953125 -3.15625 C 5.140625 -3.15625 6.21875 -3.953125 6.21875 -4.953125 C 6.21875 -5.9375 5.234375 -6.8125 3.875 -6.8125 L 0.34375 -6.8125 L 0.34375 -6.5 L 0.59375 -6.5 C 1.359375 -6.5 1.375 -6.390625 1.375 -6.03125 L 1.375 -0.78125 C 1.375 -0.421875 1.359375 -0.3125 0.59375 -0.3125 L 0.34375 -0.3125 L 0.34375 0 C 0.703125 -0.03125 1.4375 -0.03125 1.8125 -0.03125 C 2.1875 -0.03125 2.9375 -0.03125 3.296875 0 L 3.296875 -0.3125 L 3.046875 -0.3125 C 2.28125 -0.3125 2.265625 -0.421875 2.265625 -0.78125 Z M 2.234375 -3.40625 L 2.234375 -6.09375 C 2.234375 -6.4375 2.25 -6.5 2.71875 -6.5 L 3.609375 -6.5 C 5.1875 -6.5 5.1875 -5.4375 5.1875 -4.953125 C 5.1875 -4.484375 5.1875 -3.40625 3.609375 -3.40625 Z M 2.234375 -3.40625 "
           id="path4204" />
      </symbol>
      <symbol
         overflow="visible"
         id="symbol5877">
        <path
           style="stroke:none;"
           d=""
           id="path920" />
      </symbol>
      <symbol
         overflow="visible"
         id="symbol4262">
        <path
           style="stroke:none;"
           d="M 3.515625 -1.265625 L 3.28125 -1.265625 C 3.265625 -1.109375 3.1875 -0.703125 3.09375 -0.640625 C 3.046875 -0.59375 2.515625 -0.59375 2.40625 -0.59375 L 1.125 -0.59375 C 1.859375 -1.234375 2.109375 -1.4375 2.515625 -1.765625 C 3.03125 -2.171875 3.515625 -2.609375 3.515625 -3.265625 C 3.515625 -4.109375 2.78125 -4.625 1.890625 -4.625 C 1.03125 -4.625 0.4375 -4.015625 0.4375 -3.375 C 0.4375 -3.03125 0.734375 -2.984375 0.8125 -2.984375 C 0.96875 -2.984375 1.171875 -3.109375 1.171875 -3.359375 C 1.171875 -3.484375 1.125 -3.734375 0.765625 -3.734375 C 0.984375 -4.21875 1.453125 -4.375 1.78125 -4.375 C 2.484375 -4.375 2.84375 -3.828125 2.84375 -3.265625 C 2.84375 -2.65625 2.40625 -2.1875 2.1875 -1.9375 L 0.515625 -0.265625 C 0.4375 -0.203125 0.4375 -0.1875 0.4375 0 L 3.3125 0 Z M 3.515625 -1.265625 "
           id="path8459" />
      </symbol>
    </g>
    <g
       id="g724">
      <symbol
         overflow="visible"
         id="symbol3642">
        <path
           style="stroke:none;"
           d=""
           id="path2354" />
      </symbol>
      <symbol
         overflow="visible"
         id="symbol6901">
        <path
           style="stroke:none;"
           d="M 4.9375 -1.5625 C 4.9375 -1.625 4.890625 -1.640625 4.84375 -1.640625 C 4.671875 -1.640625 4.4375 -1.484375 4.421875 -1.484375 C 4.234375 -1.359375 4.1875 -1.28125 4.0625 -1.109375 C 3.765625 -0.640625 3.3125 -0.3125 2.671875 -0.3125 C 1.78125 -0.3125 0.96875 -0.953125 0.96875 -2.453125 C 0.96875 -3.34375 1.328125 -4.53125 1.859375 -5.328125 C 2.296875 -5.96875 2.828125 -6.484375 3.859375 -6.484375 C 4.234375 -6.484375 4.46875 -6.34375 4.46875 -5.96875 C 4.46875 -5.625 4.109375 -4.921875 3.984375 -4.71875 C 3.921875 -4.609375 3.921875 -4.578125 3.921875 -4.5625 C 3.921875 -4.5 3.984375 -4.5 4.03125 -4.5 C 4.234375 -4.5 4.609375 -4.71875 4.71875 -4.875 C 4.75 -4.921875 5.328125 -5.890625 5.328125 -6.40625 C 5.328125 -6.953125 4.875 -7.03125 4.515625 -7.03125 C 3.078125 -7.03125 1.890625 -6.078125 1.421875 -5.515625 C 0.234375 -4.09375 0.125 -2.546875 0.125 -2.03125 C 0.125 -0.5625 0.859375 0.234375 2.015625 0.234375 C 3.625 0.234375 4.9375 -1.3125 4.9375 -1.5625 Z M 4.9375 -1.5625 "
           id="path9497" />
      </symbol>
    </g>
    <g
       id="g5715">
      <symbol
         overflow="visible"
         id="symbol7393">
        <path
           style="stroke:none;"
           d=""
           id="path9838" />
      </symbol>
      <symbol
         overflow="visible"
         id="symbol4254">
        <path
           style="stroke:none;"
           d="M 4.28125 -5.578125 L 4.28125 -5.875 L 0.6875 -5.875 L 0.6875 -5.578125 Z M 4.28125 -5.578125 "
           id="path2565" />
      </symbol>
      <symbol
         overflow="visible"
         id="symbol4745">
        <path
           style="stroke:none;"
           d=""
           id="path8738" />
      </symbol>
      <symbol
         overflow="visible"
         id="symbol471">
        <path
           style="stroke:none;"
           d="M 4.9375 -1.5625 C 4.9375 -1.625 4.890625 -1.640625 4.84375 -1.640625 C 4.671875 -1.640625 4.4375 -1.484375 4.421875 -1.484375 C 4.234375 -1.359375 4.1875 -1.28125 4.0625 -1.109375 C 3.765625 -0.640625 3.3125 -0.3125 2.671875 -0.3125 C 1.78125 -0.3125 0.96875 -0.953125 0.96875 -2.453125 C 0.96875 -3.34375 1.328125 -4.53125 1.859375 -5.328125 C 2.296875 -5.96875 2.828125 -6.484375 3.859375 -6.484375 C 4.234375 -6.484375 4.46875 -6.34375 4.46875 -5.96875 C 4.46875 -5.625 4.109375 -4.921875 3.984375 -4.71875 C 3.921875 -4.609375 3.921875 -4.578125 3.921875 -4.5625 C 3.921875 -4.5 3.984375 -4.5 4.03125 -4.5 C 4.234375 -4.5 4.609375 -4.71875 4.71875 -4.875 C 4.75 -4.921875 5.328125 -5.890625 5.328125 -6.40625 C 5.328125 -6.953125 4.875 -7.03125 4.515625 -7.03125 C 3.078125 -7.03125 1.890625 -6.078125 1.421875 -5.515625 C 0.234375 -4.09375 0.125 -2.546875 0.125 -2.03125 C 0.125 -0.5625 0.859375 0.234375 2.015625 0.234375 C 3.625 0.234375 4.9375 -1.3125 4.9375 -1.5625 Z M 4.9375 -1.5625 "
           id="path3918" />
      </symbol>
    </g>
  </defs>
  <sodipodi:namedview
     inkscape:guide-bbox="true"
     showguides="true"
     showgrid="false"
     inkscape:document-rotation="0"
     inkscape:current-layer="layer1"
     inkscape:document-units="mm"
     inkscape:cy="135.53791"
     inkscape:cx="-480.25911"
     inkscape:zoom="0.25"
     inkscape:pageshadow="2"
     inkscape:pageopacity="0.0"
     borderopacity="1.0"
     bordercolor="#666666"
     pagecolor="#ffffff"
     id="base"
     inkscape:snap-intersection-paths="true" />
  <metadata
     id="metadata5">
    <rdf:RDF>
      <cc:Work
         rdf:about="">
        <dc:format>image/svg+xml</dc:format>
        <dc:type
           rdf:resource="http://purl.org/dc/dcmitype/StillImage" />
        <dc:title></dc:title>
      </cc:Work>
    </rdf:RDF>
  </metadata>
  <g
     id="layer1"
     inkscape:groupmode="layer"
     inkscape:label="Layer 1">
    <path
       style="display:inline;opacity:0.53513;fill:#9e9e9e;fill-opacity:1;stroke:none;stroke-width:0.176777;stroke-linecap:square;stroke-miterlimit:4;stroke-dasharray:none;stroke-opacity:1"
       d="m 48.988253,57.568641 c 7.94e-4,-0.192936 0.08255,-0.919072 0.181663,-1.61364 1.209418,-8.475679 5.574458,-15.846991 12.41757,-20.969759 7.121036,-5.330817 16.452419,-7.383745 25.198906,-5.543819 8.345511,1.755576 15.628098,6.852324 20.240958,14.165728 1.38367,2.19371 2.78899,5.370779 3.55767,8.042989 0.67113,2.333056 1.29662,6.269291 0.99622,6.269291 -0.0441,0 -0.23832,-0.256106 -0.43153,-0.569126 C 108.7611,53.48044 102.05813,50.315063 92.952628,48.757003 89.089651,48.096 86.042762,47.826797 81.586991,47.752806 c -12.407678,-0.206036 -23.51814,2.33489 -29.388575,6.72107 -1.045707,0.781315 -2.203611,1.999674 -2.688608,2.828981 -0.198324,0.339116 -0.397135,0.616574 -0.441802,0.616574 -0.04467,0 -0.08056,-0.157855 -0.07975,-0.35079 z"
       id="path858" />
    <ellipse
       ry="12.519907"
       rx="31.650558"
       cy="81.931"
       cx="80.313454"
       id="path76"
       style="display:inline;opacity:0.997;fill:#d7d7d7;fill-opacity:1;stroke:#121212;stroke-width:0.3;stroke-linecap:square;stroke-miterlimit:4;stroke-dasharray:none;stroke-opacity:1" />
    <ellipse
       style="display:inline;opacity:0.997;fill:none;fill-opacity:1;stroke:#121212;stroke-width:0.299462;stroke-linecap:square;stroke-miterlimit:4;stroke-dasharray:none;stroke-opacity:1"
       id="ellipse953"
       cx="80.325432"
       cy="60.284775"
       rx="31.516336"
       ry="12.491139" />
    <path
       style="fill:none;stroke:#ff0000;stroke-width:0.265;stroke-linecap:butt;stroke-linejoin:miter;stroke-opacity:1;stroke-miterlimit:4;stroke-dasharray:none"
       d="M 110.67857,84.920517 C 107.7174,89.829038 99.59793,92.252602 92.23718,91.294098 81.21242,89.858474 79.1094,84.095139 81.17891,81.48539 c 3.0312,-3.822485 12.79249,-6.113927 20.44961,-5.442674 7.65712,0.671253 12.39978,3.325184 9.05005,8.877801 z"
       id="path934"
       sodipodi:nodetypes="sssss" />
    <path
       sodipodi:nodetypes="cc"
       style="fill:none;stroke:#000000;stroke-width:0.265;stroke-linecap:butt;stroke-linejoin:miter;stroke-miterlimit:4;stroke-dasharray:1.06,1.06;stroke-dashoffset:0;stroke-opacity:1"
       d="m 89.47261,90.847727 0.0102,-34.901168"
       id="path966" />
    <circle
       r="0.45493242"
       cy="60.9566"
       cx="80.285988"
       id="circle908"
       style="opacity:0.997;fill:#000000;fill-opacity:1;stroke:#ff0000;stroke-width:0;stroke-linecap:round;stroke-miterlimit:4;stroke-dasharray:none" />
    <path
       id="path964"
       d="m 80.32912,60.952437 9.15366,-5.005878"
       style="fill:none;stroke:#000000;stroke-width:0.26499999;stroke-linecap:butt;stroke-linejoin:miter;stroke-miterlimit:4;stroke-dasharray:1.05999995,1.05999995;stroke-dashoffset:0;stroke-opacity:1"
       sodipodi:nodetypes="cc" />
    <path
       style="display:inline;fill:none;stroke:#000000;stroke-width:0.264583px;stroke-linecap:butt;stroke-linejoin:miter;stroke-opacity:1"
       d="M 111.89443,61.025349 C 112.86931,53.815324 97.93165,30.220115 84.5987,28.895758"
       id="path940"
       sodipodi:nodetypes="cc" />
    <path
       id="ellipse904"
       style="display:inline;opacity:0.783255;fill:#d44646;fill-opacity:1;stroke:#ffffff;stroke-width:0;stroke-linecap:square;stroke-miterlimit:4;stroke-dasharray:none"
       d="m 96.07422,71.093418 c -9.74614,2.236466 -21.753871,2.236466 -31.500006,-10e-7 C 54.82808,68.856951 48.824213,64.723792 48.82421,60.241306 c -3e-6,-17.409237 14.105227,-31.514468 31.50491,-31.514469 17.39969,-3e-6 31.50492,14.105229 31.50001,31.514469 -0.005,4.482486 -6.00878,8.615646 -15.75491,10.852112 z"
       sodipodi:nodetypes="sscscs" />
    <path
       style="fill:none;stroke:#000000;stroke-width:0.264583px;stroke-linecap:butt;stroke-linejoin:miter;stroke-opacity:1"
       d="M 111.8992,60.948755 C 110.15323,70.034543 96.752452,63.004503 91.752289,57.916702 81.793613,47.78348 79.824674,39.156744 80.398294,30.543897 81.008854,28.80253 82.4934,28.685306 84.5987,28.895758"
       id="path938"
       sodipodi:nodetypes="cscc" />
    <path
       style="display:inline;opacity:0.97;fill:none;stroke:#000000;stroke-width:0.247062;stroke-linecap:butt;stroke-linejoin:miter;stroke-miterlimit:4;stroke-dasharray:0.98824799,0.98824799;stroke-dashoffset:0;stroke-opacity:1"
       d="M 89.759109,55.795443 100.78764,49.764256"
       id="path962"
       sodipodi:nodetypes="cc" />
    <circle
       r="0.45493242"
       cy="55.732506"
       cx="89.759445"
       id="path902"
       style="opacity:0.997;fill:#000000;fill-opacity:1;stroke:#ff0000;stroke-width:0;stroke-linecap:round;stroke-miterlimit:4;stroke-dasharray:none" />
    <path
       sodipodi:nodetypes="ccccc"
       d="M 70.834581,5.29909 174.82308,22.955635 118.97308,71.025396 5.176921,56.731438 Z"
       style="display:inline;opacity:0.167683;fill:#696969;fill-opacity:1;stroke:#ffffff;stroke-width:0;stroke-linecap:square;stroke-miterlimit:4;stroke-dasharray:none"
       id="rect901" />
    <g
       id="g1023"
       transform="matrix(0.56364215,0,0,0.56364215,-35.103573,9.7537096)"
       inkscape:label="">
      <g
         id="g8152">
        <g
           style="fill:#000000;fill-opacity:1"
           id="g8733">
          <use
             xlink:href="#symbol4000"
             x="91.925003"
             y="81.962997"
             id="use4054"
             width="100%"
             height="100%" />
        </g>
        <g
           style="fill:#000000;fill-opacity:1"
           id="g2809">
          <use
             xlink:href="#symbol8458"
             x="99.121002"
             y="78.348"
             id="use9358"
             width="100%"
             height="100%" />
        </g>
      </g>
    </g>
    <g
       id="g1289"
       transform="matrix(0.50912324,0,0,0.50912324,-9.4011658,40.973866)"
       inkscape:label="">
      <g
         id="g9443">
        <g
           style="fill:#000000;fill-opacity:1"
           id="g4724">
          <use
             xlink:href="#symbol1985"
             x="91.925003"
             y="81.962997"
             id="use1587"
             width="100%"
             height="100%" />
        </g>
        <g
           style="fill:#000000;fill-opacity:1"
           id="g1310">
          <use
             xlink:href="#symbol1140"
             x="99.121002"
             y="81.962997"
             id="use19"
             width="100%"
             height="100%" />
        </g>
        <g
           style="fill:#000000;fill-opacity:1"
           id="g1558">
          <use
             xlink:href="#symbol4262"
             x="105.901"
             y="78.348"
             id="use9947"
             width="100%"
             height="100%" />
        </g>
      </g>
    </g>
    <path
       sodipodi:nodetypes="csc"
       id="path1314"
       d="M 134.75268,15.160128 C 127.71528,15.661719 91.439782,18.37165 83.297786,26.297586 68.348716,40.849961 111.35472,53.713899 130.23593,61.68321"
       style="display:inline;opacity:0.994;fill:none;stroke:#ff0000;stroke-width:0.465;stroke-linecap:butt;stroke-linejoin:miter;stroke-miterlimit:4;stroke-dasharray:none;stroke-opacity:1" />
    <g
       id="g1401"
       transform="matrix(0.51844989,0,0,0.51844989,83.754866,-28.848608)"
       inkscape:label=""
       style="fill:#ff0000;fill-opacity:1">
      <g
         id="g5222"
         style="fill:#ff0000;fill-opacity:1">
        <g
           style="fill:#ff0000;fill-opacity:1"
           id="g3074">
          <use
             xlink:href="#symbol6901"
             x="91.925003"
             y="81.962997"
             id="use1261"
             width="100%"
             height="100%"
             style="fill:#ff0000;fill-opacity:1" />
        </g>
      </g>
    </g>
    <g
       id="g1514"
       transform="matrix(0.51844989,0,0,0.51844989,50.861946,47.462845)"
       inkscape:label=""
       style="fill:#ff0000;fill-opacity:1">
      <g
         id="g645"
         style="fill:#ff0000;fill-opacity:1">
        <g
           style="fill:#ff0000;fill-opacity:1"
           id="g7444">
          <use
             xlink:href="#symbol4254"
             x="93.732002"
             y="79.445"
             id="use7739"
             width="100%"
             height="100%"
             style="fill:#ff0000;fill-opacity:1" />
        </g>
        <g
           style="fill:#ff0000;fill-opacity:1"
           id="g8963">
          <use
             xlink:href="#symbol471"
             x="91.925003"
             y="81.962997"
             id="use2326"
             width="100%"
             height="100%"
             style="fill:#ff0000;fill-opacity:1" />
        </g>
      </g>
    </g>
    <circle
       style="opacity:0.997;fill:#000000;fill-opacity:1;stroke:#ff0000;stroke-width:0;stroke-linecap:round;stroke-miterlimit:4;stroke-dasharray:none"
       id="circle904"
       cx="100.71517"
       cy="49.734554"
       r="0.45493242" />
    <circle
       style="opacity:0.997;fill:#000000;fill-opacity:1;stroke:#ff0000;stroke-width:0;stroke-linecap:round;stroke-miterlimit:4;stroke-dasharray:none"
       id="circle906"
       cx="89.480286"
       cy="90.795082"
       r="0.45493242" />
  </g>
</svg>
