<?xml version="1.0" encoding="UTF-8" standalone="no"?>
<svg
   xmlns:dc="http://purl.org/dc/elements/1.1/"
   xmlns:cc="http://creativecommons.org/ns#"
   xmlns:rdf="http://www.w3.org/1999/02/22-rdf-syntax-ns#"
   xmlns:svg="http://www.w3.org/2000/svg"
   xmlns="http://www.w3.org/2000/svg"
   xmlns:xlink="http://www.w3.org/1999/xlink"
   xmlns:sodipodi="http://sodipodi.sourceforge.net/DTD/sodipodi-0.dtd"
   xmlns:inkscape="http://www.inkscape.org/namespaces/inkscape"
   inkscape:export-ydpi="149.72624"
   inkscape:export-xdpi="149.72624"
   inkscape:export-filename="/home/john/Desktop/projective_plane/src/drawing.png"
   width="180mm"
   height="100mm"
   viewBox="0 0 180 100"
   version="1.1"
   id="svg8"
   inkscape:version="1.0 (4035a4fb49, 2020-05-01)"
   sodipodi:docname="drawing.svg">
  <defs
     id="defs2">
    <g
       id="g2739">
      <symbol
         id="symbol665"
         overflow="visible">
        <path
           id="path1087"
           d=""
           style="stroke:none;" />
      </symbol>
      <symbol
         id="symbol4000"
         overflow="visible">
        <path
           id="path7407"
           d="M 2.671875 -3.125 L 3.03125 -3.125 L 4.53125 -0.8125 C 4.625 -0.65625 4.859375 -0.265625 4.96875 -0.125 C 5.046875 0 5.078125 0 5.296875 0 L 6.671875 0 C 6.859375 0 7.015625 0 7.015625 -0.171875 C 7.015625 -0.265625 6.953125 -0.328125 6.859375 -0.34375 C 6.484375 -0.421875 6 -1.09375 5.765625 -1.40625 C 5.6875 -1.5 5.1875 -2.15625 4.53125 -3.234375 C 5.40625 -3.40625 6.265625 -3.78125 6.265625 -4.96875 C 6.265625 -6.34375 4.8125 -6.828125 3.625 -6.828125 L 0.5 -6.828125 C 0.3125 -6.828125 0.15625 -6.828125 0.15625 -6.65625 C 0.15625 -6.484375 0.34375 -6.484375 0.421875 -6.484375 C 1 -6.484375 1.046875 -6.40625 1.046875 -5.90625 L 1.046875 -0.921875 C 1.046875 -0.421875 1 -0.34375 0.421875 -0.34375 C 0.34375 -0.34375 0.15625 -0.34375 0.15625 -0.171875 C 0.15625 0 0.3125 0 0.5 0 L 3.234375 0 C 3.40625 0 3.5625 0 3.5625 -0.171875 C 3.5625 -0.34375 3.390625 -0.34375 3.28125 -0.34375 C 2.71875 -0.34375 2.671875 -0.421875 2.671875 -0.921875 Z M 4.59375 -3.625 C 4.875 -3.984375 4.90625 -4.515625 4.90625 -4.953125 C 4.90625 -5.4375 4.84375 -5.96875 4.53125 -6.375 C 4.9375 -6.28125 5.921875 -5.96875 5.921875 -4.96875 C 5.921875 -4.3125 5.625 -3.8125 4.59375 -3.625 Z M 2.671875 -5.9375 C 2.671875 -6.15625 2.671875 -6.484375 3.296875 -6.484375 C 4.140625 -6.484375 4.5625 -6.125 4.5625 -4.953125 C 4.5625 -3.671875 4.25 -3.484375 2.671875 -3.484375 Z M 1.3125 -0.34375 C 1.390625 -0.53125 1.390625 -0.8125 1.390625 -0.890625 L 1.390625 -5.9375 C 1.390625 -6.03125 1.390625 -6.296875 1.3125 -6.484375 L 2.453125 -6.484375 C 2.328125 -6.3125 2.328125 -6.125 2.328125 -5.96875 L 2.328125 -0.890625 C 2.328125 -0.796875 2.328125 -0.53125 2.40625 -0.34375 Z M 3.4375 -3.125 C 3.515625 -3.140625 3.546875 -3.15625 3.625 -3.15625 C 3.78125 -3.15625 4 -3.171875 4.140625 -3.1875 C 4.296875 -2.953125 5.375 -1.171875 6.203125 -0.34375 L 5.234375 -0.34375 Z M 3.4375 -3.125 "
           style="stroke:none;" />
      </symbol>
      <symbol
         id="symbol6528"
         overflow="visible">
        <path
           id="path2770"
           d=""
           style="stroke:none;" />
      </symbol>
      <symbol
         id="symbol8458"
         overflow="visible">
        <path
           id="path9411"
           d="M 3.515625 -1.265625 L 3.28125 -1.265625 C 3.265625 -1.109375 3.1875 -0.703125 3.09375 -0.640625 C 3.046875 -0.59375 2.515625 -0.59375 2.40625 -0.59375 L 1.125 -0.59375 C 1.859375 -1.234375 2.109375 -1.4375 2.515625 -1.765625 C 3.03125 -2.171875 3.515625 -2.609375 3.515625 -3.265625 C 3.515625 -4.109375 2.78125 -4.625 1.890625 -4.625 C 1.03125 -4.625 0.4375 -4.015625 0.4375 -3.375 C 0.4375 -3.03125 0.734375 -2.984375 0.8125 -2.984375 C 0.96875 -2.984375 1.171875 -3.109375 1.171875 -3.359375 C 1.171875 -3.484375 1.125 -3.734375 0.765625 -3.734375 C 0.984375 -4.21875 1.453125 -4.375 1.78125 -4.375 C 2.484375 -4.375 2.84375 -3.828125 2.84375 -3.265625 C 2.84375 -2.65625 2.40625 -2.1875 2.1875 -1.9375 L 0.515625 -0.265625 C 0.4375 -0.203125 0.4375 -0.1875 0.4375 0 L 3.3125 0 Z M 3.515625 -1.265625 "
           style="stroke:none;" />
      </symbol>
    </g>
    <g
       id="g770">
      <symbol
         id="symbol1274"
         overflow="visible">
        <path
           id="path4062"
           d=""
           style="stroke:none;" />
      </symbol>
      <symbol
         id="symbol1985"
         overflow="visible">
        <path
           id="path3867"
           d="M 2.671875 -3.125 L 3.03125 -3.125 L 4.53125 -0.8125 C 4.625 -0.65625 4.859375 -0.265625 4.96875 -0.125 C 5.046875 0 5.078125 0 5.296875 0 L 6.671875 0 C 6.859375 0 7.015625 0 7.015625 -0.171875 C 7.015625 -0.265625 6.953125 -0.328125 6.859375 -0.34375 C 6.484375 -0.421875 6 -1.09375 5.765625 -1.40625 C 5.6875 -1.5 5.1875 -2.15625 4.53125 -3.234375 C 5.40625 -3.40625 6.265625 -3.78125 6.265625 -4.96875 C 6.265625 -6.34375 4.8125 -6.828125 3.625 -6.828125 L 0.5 -6.828125 C 0.3125 -6.828125 0.15625 -6.828125 0.15625 -6.65625 C 0.15625 -6.484375 0.34375 -6.484375 0.421875 -6.484375 C 1 -6.484375 1.046875 -6.40625 1.046875 -5.90625 L 1.046875 -0.921875 C 1.046875 -0.421875 1 -0.34375 0.421875 -0.34375 C 0.34375 -0.34375 0.15625 -0.34375 0.15625 -0.171875 C 0.15625 0 0.3125 0 0.5 0 L 3.234375 0 C 3.40625 0 3.5625 0 3.5625 -0.171875 C 3.5625 -0.34375 3.390625 -0.34375 3.28125 -0.34375 C 2.71875 -0.34375 2.671875 -0.421875 2.671875 -0.921875 Z M 4.59375 -3.625 C 4.875 -3.984375 4.90625 -4.515625 4.90625 -4.953125 C 4.90625 -5.4375 4.84375 -5.96875 4.53125 -6.375 C 4.9375 -6.28125 5.921875 -5.96875 5.921875 -4.96875 C 5.921875 -4.3125 5.625 -3.8125 4.59375 -3.625 Z M 2.671875 -5.9375 C 2.671875 -6.15625 2.671875 -6.484375 3.296875 -6.484375 C 4.140625 -6.484375 4.5625 -6.125 4.5625 -4.953125 C 4.5625 -3.671875 4.25 -3.484375 2.671875 -3.484375 Z M 1.3125 -0.34375 C 1.390625 -0.53125 1.390625 -0.8125 1.390625 -0.890625 L 1.390625 -5.9375 C 1.390625 -6.03125 1.390625 -6.296875 1.3125 -6.484375 L 2.453125 -6.484375 C 2.328125 -6.3125 2.328125 -6.125 2.328125 -5.96875 L 2.328125 -0.890625 C 2.328125 -0.796875 2.328125 -0.53125 2.40625 -0.34375 Z M 3.4375 -3.125 C 3.515625 -3.140625 3.546875 -3.15625 3.625 -3.15625 C 3.78125 -3.15625 4 -3.171875 4.140625 -3.1875 C 4.296875 -2.953125 5.375 -1.171875 6.203125 -0.34375 L 5.234375 -0.34375 Z M 3.4375 -3.125 "
           style="stroke:none;" />
      </symbol>
      <symbol
         id="symbol2511"
         overflow="visible">
        <path
           id="path8133"
           d=""
           style="stroke:none;" />
      </symbol>
      <symbol
         id="symbol1140"
         overflow="visible">
        <path
           id="path4204"
           d="M 2.265625 -3.15625 L 3.953125 -3.15625 C 5.140625 -3.15625 6.21875 -3.953125 6.21875 -4.953125 C 6.21875 -5.9375 5.234375 -6.8125 3.875 -6.8125 L 0.34375 -6.8125 L 0.34375 -6.5 L 0.59375 -6.5 C 1.359375 -6.5 1.375 -6.390625 1.375 -6.03125 L 1.375 -0.78125 C 1.375 -0.421875 1.359375 -0.3125 0.59375 -0.3125 L 0.34375 -0.3125 L 0.34375 0 C 0.703125 -0.03125 1.4375 -0.03125 1.8125 -0.03125 C 2.1875 -0.03125 2.9375 -0.03125 3.296875 0 L 3.296875 -0.3125 L 3.046875 -0.3125 C 2.28125 -0.3125 2.265625 -0.421875 2.265625 -0.78125 Z M 2.234375 -3.40625 L 2.234375 -6.09375 C 2.234375 -6.4375 2.25 -6.5 2.71875 -6.5 L 3.609375 -6.5 C 5.1875 -6.5 5.1875 -5.4375 5.1875 -4.953125 C 5.1875 -4.484375 5.1875 -3.40625 3.609375 -3.40625 Z M 2.234375 -3.40625 "
           style="stroke:none;" />
      </symbol>
      <symbol
         id="symbol5877"
         overflow="visible">
        <path
           id="path920"
           d=""
           style="stroke:none;" />
      </symbol>
      <symbol
         id="symbol4262"
         overflow="visible">
        <path
           id="path8459"
           d="M 3.515625 -1.265625 L 3.28125 -1.265625 C 3.265625 -1.109375 3.1875 -0.703125 3.09375 -0.640625 C 3.046875 -0.59375 2.515625 -0.59375 2.40625 -0.59375 L 1.125 -0.59375 C 1.859375 -1.234375 2.109375 -1.4375 2.515625 -1.765625 C 3.03125 -2.171875 3.515625 -2.609375 3.515625 -3.265625 C 3.515625 -4.109375 2.78125 -4.625 1.890625 -4.625 C 1.03125 -4.625 0.4375 -4.015625 0.4375 -3.375 C 0.4375 -3.03125 0.734375 -2.984375 0.8125 -2.984375 C 0.96875 -2.984375 1.171875 -3.109375 1.171875 -3.359375 C 1.171875 -3.484375 1.125 -3.734375 0.765625 -3.734375 C 0.984375 -4.21875 1.453125 -4.375 1.78125 -4.375 C 2.484375 -4.375 2.84375 -3.828125 2.84375 -3.265625 C 2.84375 -2.65625 2.40625 -2.1875 2.1875 -1.9375 L 0.515625 -0.265625 C 0.4375 -0.203125 0.4375 -0.1875 0.4375 0 L 3.3125 0 Z M 3.515625 -1.265625 "
           style="stroke:none;" />
      </symbol>
    </g>
    <g
       id="g724">
      <symbol
         id="symbol3642"
         overflow="visible">
        <path
           id="path2354"
           d=""
           style="stroke:none;" />
      </symbol>
      <symbol
         id="symbol6901"
         overflow="visible">
        <path
           id="path9497"
           d="M 4.9375 -1.5625 C 4.9375 -1.625 4.890625 -1.640625 4.84375 -1.640625 C 4.671875 -1.640625 4.4375 -1.484375 4.421875 -1.484375 C 4.234375 -1.359375 4.1875 -1.28125 4.0625 -1.109375 C 3.765625 -0.640625 3.3125 -0.3125 2.671875 -0.3125 C 1.78125 -0.3125 0.96875 -0.953125 0.96875 -2.453125 C 0.96875 -3.34375 1.328125 -4.53125 1.859375 -5.328125 C 2.296875 -5.96875 2.828125 -6.484375 3.859375 -6.484375 C 4.234375 -6.484375 4.46875 -6.34375 4.46875 -5.96875 C 4.46875 -5.625 4.109375 -4.921875 3.984375 -4.71875 C 3.921875 -4.609375 3.921875 -4.578125 3.921875 -4.5625 C 3.921875 -4.5 3.984375 -4.5 4.03125 -4.5 C 4.234375 -4.5 4.609375 -4.71875 4.71875 -4.875 C 4.75 -4.921875 5.328125 -5.890625 5.328125 -6.40625 C 5.328125 -6.953125 4.875 -7.03125 4.515625 -7.03125 C 3.078125 -7.03125 1.890625 -6.078125 1.421875 -5.515625 C 0.234375 -4.09375 0.125 -2.546875 0.125 -2.03125 C 0.125 -0.5625 0.859375 0.234375 2.015625 0.234375 C 3.625 0.234375 4.9375 -1.3125 4.9375 -1.5625 Z M 4.9375 -1.5625 "
           style="stroke:none;" />
      </symbol>
    </g>
    <g
       id="g5715">
      <symbol
         id="symbol7393"
         overflow="visible">
        <path
           id="path9838"
           d=""
           style="stroke:none;" />
      </symbol>
      <symbol
         id="symbol4254"
         overflow="visible">
        <path
           id="path2565"
           d="M 4.28125 -5.578125 L 4.28125 -5.875 L 0.6875 -5.875 L 0.6875 -5.578125 Z M 4.28125 -5.578125 "
           style="stroke:none;" />
      </symbol>
      <symbol
         id="symbol4745"
         overflow="visible">
        <path
           id="path8738"
           d=""
           style="stroke:none;" />
      </symbol>
      <symbol
         id="symbol471"
         overflow="visible">
        <path
           id="path3918"
           d="M 4.9375 -1.5625 C 4.9375 -1.625 4.890625 -1.640625 4.84375 -1.640625 C 4.671875 -1.640625 4.4375 -1.484375 4.421875 -1.484375 C 4.234375 -1.359375 4.1875 -1.28125 4.0625 -1.109375 C 3.765625 -0.640625 3.3125 -0.3125 2.671875 -0.3125 C 1.78125 -0.3125 0.96875 -0.953125 0.96875 -2.453125 C 0.96875 -3.34375 1.328125 -4.53125 1.859375 -5.328125 C 2.296875 -5.96875 2.828125 -6.484375 3.859375 -6.484375 C 4.234375 -6.484375 4.46875 -6.34375 4.46875 -5.96875 C 4.46875 -5.625 4.109375 -4.921875 3.984375 -4.71875 C 3.921875 -4.609375 3.921875 -4.578125 3.921875 -4.5625 C 3.921875 -4.5 3.984375 -4.5 4.03125 -4.5 C 4.234375 -4.5 4.609375 -4.71875 4.71875 -4.875 C 4.75 -4.921875 5.328125 -5.890625 5.328125 -6.40625 C 5.328125 -6.953125 4.875 -7.03125 4.515625 -7.03125 C 3.078125 -7.03125 1.890625 -6.078125 1.421875 -5.515625 C 0.234375 -4.09375 0.125 -2.546875 0.125 -2.03125 C 0.125 -0.5625 0.859375 0.234375 2.015625 0.234375 C 3.625 0.234375 4.9375 -1.3125 4.9375 -1.5625 Z M 4.9375 -1.5625 "
           style="stroke:none;" />
      </symbol>
    </g>
  </defs>
  <sodipodi:namedview
     inkscape:snap-intersection-paths="true"
     id="base"
     pagecolor="#ffffff"
     bordercolor="#666666"
     borderopacity="1.0"
     inkscape:pageopacity="0.0"
     inkscape:pageshadow="2"
     inkscape:zoom="0.70710678"
     inkscape:cx="454.61348"
     inkscape:cy="80.94199"
     inkscape:document-units="mm"
     inkscape:current-layer="layer1"
     inkscape:document-rotation="0"
     showgrid="false"
     showguides="true"
     inkscape:guide-bbox="true" />
  <metadata
     id="metadata5">
    <rdf:RDF>
      <cc:Work
         rdf:about="">
        <dc:format>image/svg+xml</dc:format>
        <dc:type
           rdf:resource="http://purl.org/dc/dcmitype/StillImage" />
        <dc:title></dc:title>
      </cc:Work>
    </rdf:RDF>
  </metadata>
  <g
     inkscape:label="Layer 1"
     inkscape:groupmode="layer"
     id="layer1">
    <path
       id="path858"
       d="m 48.988253,57.568641 c 7.94e-4,-0.192936 0.08255,-0.919072 0.181663,-1.61364 1.209418,-8.475679 5.574458,-15.846991 12.41757,-20.969759 7.121036,-5.330817 16.452419,-7.383745 25.198906,-5.543819 8.345511,1.755576 15.628098,6.852324 20.240958,14.165728 1.38367,2.19371 2.78899,5.370779 3.55767,8.042989 0.67113,2.333056 1.29662,6.269291 0.99622,6.269291 -0.0441,0 -0.23832,-0.256106 -0.43153,-0.569126 C 108.7611,53.48044 102.05813,50.315063 92.952628,48.757003 89.089651,48.096 86.042762,47.826797 81.586991,47.752806 c -12.407678,-0.206036 -23.51814,2.33489 -29.388575,6.72107 -1.045707,0.781315 -2.203611,1.999674 -2.688608,2.828981 -0.198324,0.339116 -0.397135,0.616574 -0.441802,0.616574 -0.04467,0 -0.08056,-0.157855 -0.07975,-0.35079 z"
       style="display:inline;opacity:0.53513;fill:#9e9e9e;fill-opacity:1;stroke:none;stroke-width:0.176777;stroke-linecap:square;stroke-miterlimit:4;stroke-dasharray:none;stroke-opacity:1" />
    <g
       transform="translate(-23.86632,-2.2966429)"
       id="g950">
      <ellipse
         ry="12.519907"
         rx="31.650558"
         cy="84.227646"
         cx="104.17977"
         id="path76"
         style="display:inline;opacity:0.997;fill:#d7d7d7;fill-opacity:1;stroke:#121212;stroke-width:0.5;stroke-linecap:square;stroke-miterlimit:4;stroke-dasharray:none;stroke-opacity:1" />
      <path
         style="fill:none;stroke:#ff0000;stroke-width:0.264583px;stroke-linecap:butt;stroke-linejoin:miter;stroke-opacity:1"
         d="m 134.54489,87.21716 c -2.96117,4.908521 -11.08064,7.332085 -18.44139,6.373581 -11.02476,-1.435624 -13.12778,-7.198959 -11.05827,-9.808708 3.0312,-3.822485 12.79249,-6.113927 20.44961,-5.442674 7.65712,0.671253 12.39978,3.325184 9.05005,8.877801 z"
         id="path934"
         sodipodi:nodetypes="sssss" />
    </g>
    <path
       id="path966"
       d="m 89.47261,90.847727 0.0102,-34.901168"
       style="fill:none;stroke:#000000;stroke-width:0.264583;stroke-linecap:butt;stroke-linejoin:miter;stroke-miterlimit:4;stroke-dasharray:1.05833, 1.05833;stroke-dashoffset:0;stroke-opacity:1"
       sodipodi:nodetypes="cc" />
    <path
       sodipodi:nodetypes="cc"
       style="fill:none;stroke:#000000;stroke-width:0.264583;stroke-linecap:butt;stroke-linejoin:miter;stroke-miterlimit:4;stroke-dasharray:1.5875, 1.5875;stroke-dashoffset:0;stroke-opacity:1"
       d="m 80.32912,60.952437 9.15366,-5.005878"
       id="path964" />
    <path
       sodipodi:nodetypes="cc"
       id="path940"
       d="M 111.89443,61.025349 C 112.86931,53.815324 97.93165,30.220115 84.5987,28.895758"
       style="fill:none;stroke:#000000;stroke-width:0.264583px;stroke-linecap:butt;stroke-linejoin:miter;stroke-opacity:1" />
    <path
       sodipodi:nodetypes="sscscs"
       d="m 96.07422,71.093418 c -9.74614,2.236466 -21.753871,2.236466 -31.500006,-10e-7 C 54.82808,68.856951 48.824213,64.723792 48.82421,60.241306 c -3e-6,-17.409237 14.105227,-31.514468 31.50491,-31.514469 17.39969,-3e-6 31.50492,14.105229 31.50001,31.514469 -0.005,4.482486 -6.00878,8.615646 -15.75491,10.852112 z"
       style="display:inline;opacity:0.783255;fill:#d44646;fill-opacity:1;stroke:#ffffff;stroke-width:0;stroke-linecap:square;stroke-miterlimit:4;stroke-dasharray:none"
       id="ellipse904" />
    <path
       sodipodi:nodetypes="cscc"
       id="path938"
       d="M 111.8992,60.948755 C 110.15323,70.034543 96.752452,63.004503 91.752289,57.916702 81.793613,47.78348 79.63923,39.273674 80.21285,30.660827 80.82341,28.91946 82.4934,28.685306 84.5987,28.895758"
       style="fill:none;stroke:#000000;stroke-width:0.264583px;stroke-linecap:butt;stroke-linejoin:miter;stroke-opacity:1" />
    <path
       sodipodi:nodetypes="cc"
       id="path962"
       d="m 89.48278,55.94656 11.8293,-6.469104"
       style="display:inline;opacity:0.97;fill:none;stroke:#000000;stroke-width:0.265;stroke-linecap:butt;stroke-linejoin:miter;stroke-miterlimit:4;stroke-dasharray:2.12, 1.06;stroke-dashoffset:0;stroke-opacity:1" />
    <path
       id="rect901"
       style="display:inline;opacity:0.321697;fill:#696969;fill-opacity:1;stroke:#ffffff;stroke-width:0;stroke-linecap:square;stroke-miterlimit:4;stroke-dasharray:none"
       d="M 70.834581,5.29909 174.82308,22.955635 118.97308,71.025396 5.176921,56.731438 Z"
       sodipodi:nodetypes="ccccc" />
    <g
       inkscape:label=""
       transform="matrix(0.56364215,0,0,0.56364215,-35.103573,8.5602424)"
       id="g1023">
      <g
         id="g8152">
        <g
           id="g8733"
           style="fill:#000000;fill-opacity:1">
          <use
             height="100%"
             width="100%"
             id="use4054"
             y="81.962997"
             x="91.925003"
             xlink:href="#symbol4000" />
        </g>
        <g
           id="g2809"
           style="fill:#000000;fill-opacity:1">
          <use
             height="100%"
             width="100%"
             id="use9358"
             y="78.348"
             x="99.121002"
             xlink:href="#symbol8458" />
        </g>
      </g>
    </g>
    <g
       inkscape:label=""
       transform="matrix(0.50912324,0,0,0.50912324,-9.4011658,40.973866)"
       id="g1289">
      <g
         id="g9443">
        <g
           id="g4724"
           style="fill:#000000;fill-opacity:1">
          <use
             height="100%"
             width="100%"
             id="use1587"
             y="81.962997"
             x="91.925003"
             xlink:href="#symbol1985" />
        </g>
        <g
           id="g1310"
           style="fill:#000000;fill-opacity:1">
          <use
             height="100%"
             width="100%"
             id="use19"
             y="81.962997"
             x="99.121002"
             xlink:href="#symbol1140" />
        </g>
        <g
           id="g1558"
           style="fill:#000000;fill-opacity:1">
          <use
             height="100%"
             width="100%"
             id="use9947"
             y="78.348"
             x="105.901"
             xlink:href="#symbol4262" />
        </g>
      </g>
    </g>
    <path
       style="display:inline;opacity:0.994;fill:none;stroke:#ff0000;stroke-width:0.865;stroke-linecap:butt;stroke-linejoin:miter;stroke-miterlimit:4;stroke-dasharray:none;stroke-opacity:1"
       d="M 134.75268,15.160128 C 127.71528,15.661719 91.439782,18.37165 83.297786,26.297586 68.348716,40.849961 111.35472,53.713899 130.23593,61.68321"
       id="path1314"
       sodipodi:nodetypes="csc" />
    <g
       style="fill:#ff0000;fill-opacity:1"
       inkscape:label=""
       transform="matrix(0.51844989,0,0,0.51844989,83.754866,-28.848608)"
       id="g1401">
      <g
         style="fill:#ff0000;fill-opacity:1"
         id="g5222">
        <g
           id="g3074"
           style="fill:#ff0000;fill-opacity:1">
          <use
             style="fill:#ff0000;fill-opacity:1"
             height="100%"
             width="100%"
             id="use1261"
             y="81.962997"
             x="91.925003"
             xlink:href="#symbol6901" />
        </g>
      </g>
    </g>
    <g
       style="fill:#ff0000;fill-opacity:1"
       inkscape:label=""
       transform="matrix(0.51844989,0,0,0.51844989,50.861946,47.462845)"
       id="g1514">
      <g
         style="fill:#ff0000;fill-opacity:1"
         id="g645">
        <g
           id="g7444"
           style="fill:#ff0000;fill-opacity:1">
          <use
             style="fill:#ff0000;fill-opacity:1"
             height="100%"
             width="100%"
             id="use7739"
             y="79.445"
             x="93.732002"
             xlink:href="#symbol4254" />
        </g>
        <g
           id="g8963"
           style="fill:#ff0000;fill-opacity:1">
          <use
             style="fill:#ff0000;fill-opacity:1"
             height="100%"
             width="100%"
             id="use2326"
             y="81.962997"
             x="91.925003"
             xlink:href="#symbol471" />
        </g>
      </g>
    </g>
  </g>
</svg>
